<svg width="16" height="16" viewBox="0 0 16 16" fill="none" xmlns="http://www.w3.org/2000/svg">
<path fill-rule="evenodd" clip-rule="evenodd" d="M1.33301 3.99999C1.33301 3.26361 1.92996 2.66666 2.66634 2.66666H7.99968C8.73605 2.66666 9.33301 3.26361 9.33301 3.99999H11.0569C11.4105 3.99999 11.7496 4.14047 11.9997 4.39051L11.5283 4.86192L11.9997 4.39051L14.2758 6.66666C14.5259 6.9167 14.6663 7.25584 14.6663 7.60947V10.6667C14.6663 11.403 14.0694 12 13.333 12H13.2192C12.9446 12.7768 12.2038 13.3333 11.333 13.3333C10.4622 13.3333 9.72137 12.7768 9.44681 12H9.33301C9.09015 12 8.86246 11.9351 8.66634 11.8216C8.47023 11.9351 8.24253 12 7.99968 12H6.55254C6.27798 12.7768 5.53715 13.3333 4.66634 13.3333C3.79553 13.3333 3.0547 12.7768 2.78014 12H2.66634C1.92996 12 1.33301 11.403 1.33301 10.6667V3.99999ZM2.78014 10.6667C3.0547 9.88986 3.79553 9.33332 4.66634 9.33332C5.53715 9.33332 6.27798 9.88986 6.55254 10.6667H7.99968L7.99967 5.33332C7.99967 5.3327 7.99968 5.33208 7.99968 5.33146L7.99967 5.33332M7.99968 5.33146L7.99968 3.99999L2.66634 3.99999V10.6667H2.78014M9.33301 10.6667H9.44681C9.72137 9.88986 10.4622 9.33332 11.333 9.33332C12.2038 9.33332 12.9446 9.88986 13.2192 10.6667H13.333L13.333 7.60947L11.0569 5.33332H9.33301L9.33301 10.6667ZM4.66634 10.6667C4.29815 10.6667 3.99967 10.9651 3.99967 11.3333C3.99967 11.7015 4.29815 12 4.66634 12C5.03453 12 5.33301 11.7015 5.33301 11.3333C5.33301 10.9651 5.03453 10.6667 4.66634 10.6667ZM11.333 10.6667C10.9648 10.6667 10.6663 10.9651 10.6663 11.3333C10.6663 11.7015 10.9648 12 11.333 12C11.7012 12 11.9997 11.7015 11.9997 11.3333C11.9997 10.9651 11.7012 10.6667 11.333 10.6667Z" fill="#d8c7af"/>
</svg>
