<svg width="35" height="35" viewBox="0 0 24 24" fill="none" xmlns="http://www.w3.org/2000/svg">
<path fill-rule="evenodd" clip-rule="evenodd" d="M3.59961 5.99999C3.59961 5.33725 4.13687 4.79999 4.79961 4.79999H19.1996C19.8624 4.79999 20.3996 5.33725 20.3996 5.99999C20.3996 6.66273 19.8624 7.19999 19.1996 7.19999H4.79961C4.13687 7.19999 3.59961 6.66273 3.59961 5.99999Z" fill="#f4f2f0"/>
<path fill-rule="evenodd" clip-rule="evenodd" d="M3.59961 12C3.59961 11.3372 4.13687 10.8 4.79961 10.8H19.1996C19.8624 10.8 20.3996 11.3372 20.3996 12C20.3996 12.6627 19.8624 13.2 19.1996 13.2H4.79961C4.13687 13.2 3.59961 12.6627 3.59961 12Z" fill="#f4f2f0"/>
<path fill-rule="evenodd" clip-rule="evenodd" d="M3.59961 18C3.59961 17.3372 4.13687 16.8 4.79961 16.8H19.1996C19.8624 16.8 20.3996 17.3372 20.3996 18C20.3996 18.6627 19.8624 19.2 19.1996 19.2H4.79961C4.13687 19.2 3.59961 18.6627 3.59961 18Z" fill="#f4f2f0"/>
</svg>
