<svg width="424" height="108" viewBox="0 0 424 108" fill="none" xmlns="http://www.w3.org/2000/svg">
<g filter="url(#filter0_ddd_12_256)">
<path d="M18.6364 4.90909L42.8636 78.1818H43.8182L68 4.90909H86.5455L53.7273 98H32.9091L0.136364 4.90909H18.6364ZM121.034 99.3636C114.216 99.3636 108.307 97.8636 103.307 94.8636C98.3068 91.8636 94.428 87.6667 91.6705 82.2727C88.9432 76.8788 87.5795 70.5758 87.5795 63.3636C87.5795 56.1515 88.9432 49.8333 91.6705 44.4091C94.428 38.9848 98.3068 34.7727 103.307 31.7727C108.307 28.7727 114.216 27.2727 121.034 27.2727C127.852 27.2727 133.761 28.7727 138.761 31.7727C143.761 34.7727 147.625 38.9848 150.352 44.4091C153.11 49.8333 154.489 56.1515 154.489 63.3636C154.489 70.5758 153.11 76.8788 150.352 82.2727C147.625 87.6667 143.761 91.8636 138.761 94.8636C133.761 97.8636 127.852 99.3636 121.034 99.3636ZM121.125 86.1818C124.822 86.1818 127.913 85.1667 130.398 83.1364C132.883 81.0758 134.731 78.3182 135.943 74.8636C137.186 71.4091 137.807 67.5606 137.807 63.3182C137.807 59.0455 137.186 55.1818 135.943 51.7273C134.731 48.2424 132.883 45.4697 130.398 43.4091C127.913 41.3485 124.822 40.3182 121.125 40.3182C117.337 40.3182 114.186 41.3485 111.67 43.4091C109.186 45.4697 107.322 48.2424 106.08 51.7273C104.867 55.1818 104.261 59.0455 104.261 63.3182C104.261 67.5606 104.867 71.4091 106.08 74.8636C107.322 78.3182 109.186 81.0758 111.67 83.1364C114.186 85.1667 117.337 86.1818 121.125 86.1818ZM168.455 98V28.1818H184.909V98H168.455ZM176.727 18.2727C174.121 18.2727 171.879 17.4091 170 15.6818C168.121 13.9242 167.182 11.8182 167.182 9.36363C167.182 6.87878 168.121 4.77272 170 3.04545C171.879 1.28787 174.121 0.409088 176.727 0.409088C179.364 0.409088 181.606 1.28787 183.455 3.04545C185.333 4.77272 186.273 6.87878 186.273 9.36363C186.273 11.8182 185.333 13.9242 183.455 15.6818C181.606 17.4091 179.364 18.2727 176.727 18.2727ZM218.284 57.0909V98H201.83V28.1818H217.557V40.0455H218.375C219.981 36.1364 222.542 33.0303 226.057 30.7273C229.602 28.4242 233.981 27.2727 239.193 27.2727C244.011 27.2727 248.208 28.303 251.784 30.3636C255.39 32.4242 258.178 35.4091 260.148 39.3182C262.148 43.2273 263.133 47.9697 263.102 53.5455V98H246.648V56.0909C246.648 51.4242 245.436 47.7727 243.011 45.1364C240.617 42.5 237.299 41.1818 233.057 41.1818C230.178 41.1818 227.617 41.8182 225.375 43.0909C223.163 44.3333 221.42 46.1364 220.148 48.5C218.905 50.8636 218.284 53.7273 218.284 57.0909ZM310.284 99.3636C303.314 99.3636 297.33 97.8333 292.33 94.7727C287.36 91.7121 283.527 87.4848 280.83 82.0909C278.163 76.6667 276.83 70.4242 276.83 63.3636C276.83 56.2727 278.193 50.0152 280.92 44.5909C283.648 39.1364 287.496 34.8939 292.466 31.8636C297.466 28.803 303.375 27.2727 310.193 27.2727C315.86 27.2727 320.875 28.3182 325.239 30.4091C329.633 32.4697 333.133 35.3939 335.739 39.1818C338.345 42.9394 339.83 47.3333 340.193 52.3636H324.466C323.83 49 322.314 46.197 319.92 43.9545C317.557 41.6818 314.39 40.5455 310.42 40.5455C307.057 40.5455 304.102 41.4545 301.557 43.2727C299.011 45.0606 297.027 47.6364 295.602 51C294.208 54.3636 293.511 58.3939 293.511 63.0909C293.511 67.8485 294.208 71.9394 295.602 75.3636C296.996 78.7576 298.951 81.3788 301.466 83.2273C304.011 85.0455 306.996 85.9545 310.42 85.9545C312.845 85.9545 315.011 85.5 316.92 84.5909C318.86 83.6515 320.481 82.303 321.784 80.5455C323.087 78.7879 323.981 76.6515 324.466 74.1364H340.193C339.799 79.0758 338.345 83.4545 335.83 87.2727C333.314 91.0606 329.89 94.0303 325.557 96.1818C321.223 98.303 316.133 99.3636 310.284 99.3636ZM384.614 99.3636C377.614 99.3636 371.568 97.9091 366.477 95C361.417 92.0606 357.523 87.9091 354.795 82.5455C352.068 77.1515 350.705 70.803 350.705 63.5C350.705 56.3182 352.068 50.0152 354.795 44.5909C357.553 39.1364 361.402 34.8939 366.341 31.8636C371.28 28.803 377.083 27.2727 383.75 27.2727C388.053 27.2727 392.114 27.9697 395.932 29.3636C399.78 30.7273 403.174 32.8485 406.114 35.7273C409.083 38.6061 411.417 42.2727 413.114 46.7273C414.811 51.1515 415.659 56.4242 415.659 62.5455V67.5909H358.432V56.5H399.886C399.856 53.3485 399.174 50.5455 397.841 48.0909C396.508 45.6061 394.644 43.6515 392.25 42.2273C389.886 40.803 387.129 40.0909 383.977 40.0909C380.614 40.0909 377.659 40.9091 375.114 42.5455C372.568 44.1515 370.583 46.2727 369.159 48.9091C367.765 51.5151 367.053 54.3788 367.023 57.5V67.1818C367.023 71.2424 367.765 74.7273 369.25 77.6364C370.735 80.5152 372.811 82.7273 375.477 84.2727C378.144 85.7879 381.265 86.5455 384.841 86.5455C387.235 86.5455 389.402 86.2121 391.341 85.5455C393.28 84.8485 394.962 83.8333 396.386 82.5C397.811 81.1667 398.886 79.5152 399.614 77.5455L414.977 79.2727C414.008 83.3333 412.159 86.8788 409.432 89.9091C406.735 92.9091 403.28 95.2424 399.068 96.9091C394.856 98.5455 390.038 99.3636 384.614 99.3636Z" fill="url(#paint0_linear_12_256)"/>
</g>
<defs>
<filter id="filter0_ddd_12_256" x="0.136353" y="0.409088" width="423.523" height="106.955" filterUnits="userSpaceOnUse" color-interpolation-filters="sRGB">
<feFlood flood-opacity="0" result="BackgroundImageFix"/>
<feColorMatrix in="SourceAlpha" type="matrix" values="0 0 0 0 0 0 0 0 0 0 0 0 0 0 0 0 0 0 127 0" result="hardAlpha"/>
<feOffset dx="4" dy="4"/>
<feGaussianBlur stdDeviation="2"/>
<feComposite in2="hardAlpha" operator="out"/>
<feColorMatrix type="matrix" values="0 0 0 0 0.87451 0 0 0 0 0.835294 0 0 0 0 0.784314 0 0 0 0.6 0"/>
<feBlend mode="normal" in2="BackgroundImageFix" result="effect1_dropShadow_12_256"/>
<feColorMatrix in="SourceAlpha" type="matrix" values="0 0 0 0 0 0 0 0 0 0 0 0 0 0 0 0 0 0 127 0" result="hardAlpha"/>
<feOffset dx="3" dy="3"/>
<feGaussianBlur stdDeviation="1"/>
<feComposite in2="hardAlpha" operator="out"/>
<feColorMatrix type="matrix" values="0 0 0 0 0.129412 0 0 0 0 0.129412 0 0 0 0 0.129412 0 0 0 0.55 0"/>
<feBlend mode="normal" in2="effect1_dropShadow_12_256" result="effect2_dropShadow_12_256"/>
<feColorMatrix in="SourceAlpha" type="matrix" values="0 0 0 0 0 0 0 0 0 0 0 0 0 0 0 0 0 0 127 0" result="hardAlpha"/>
<feOffset dx="2" dy="2"/>
<feGaussianBlur stdDeviation="1"/>
<feComposite in2="hardAlpha" operator="out"/>
<feColorMatrix type="matrix" values="0 0 0 0 0.87451 0 0 0 0 0.835294 0 0 0 0 0.784314 0 0 0 0.25 0"/>
<feBlend mode="normal" in2="effect2_dropShadow_12_256" result="effect3_dropShadow_12_256"/>
<feBlend mode="normal" in="SourceGraphic" in2="effect3_dropShadow_12_256" result="shape"/>
</filter>
<linearGradient id="paint0_linear_12_256" x1="231.375" y1="-44" x2="190.91" y2="148.69" gradientUnits="userSpaceOnUse">
<stop stop-color="#DFD5C8"/>
<stop offset="1" stop-color="#212121"/>
</linearGradient>
</defs>
</svg>
