<svg width="20" height="20" viewBox="0 0 20 20" fill="none" xmlns="http://www.w3.org/2000/svg">
<path fill-rule="evenodd" clip-rule="evenodd" d="M9.99967 3.33332C8.61896 3.33332 7.49967 4.45261 7.49967 5.83332C7.49967 7.21404 8.61896 8.33332 9.99967 8.33332C11.3804 8.33332 12.4997 7.21404 12.4997 5.83332C12.4997 4.45261 11.3804 3.33332 9.99967 3.33332ZM5.83301 5.83332C5.83301 3.53214 7.69849 1.66666 9.99967 1.66666C12.3009 1.66666 14.1663 3.53214 14.1663 5.83332C14.1663 8.13451 12.3009 9.99999 9.99967 9.99999C7.69849 9.99999 5.83301 8.13451 5.83301 5.83332ZM5.06881 16.6667H14.9305C14.5338 14.3019 12.4772 12.5 9.99967 12.5C7.52218 12.5 5.46554 14.3019 5.06881 16.6667ZM3.33301 17.5C3.33301 13.8181 6.31778 10.8333 9.99967 10.8333C13.6816 10.8333 16.6663 13.8181 16.6663 17.5C16.6663 17.9602 16.2932 18.3333 15.833 18.3333H4.16634C3.7061 18.3333 3.33301 17.9602 3.33301 17.5Z" fill="#d8c7af"/>
</svg>
